<svg class="svg-icon" style="width: 1em; height: 1em;vertical-align: middle;fill: currentColor;overflow: hidden;" viewBox="0 0 1024 1024" version="1.1" xmlns="http://www.w3.org/2000/svg"><path d="M560.810667 259.456L612.010667 170.666667h197.12l-89.813334 155.52a339.541333 339.541333 0 0 0-158.506666-66.730667zM512 896a298.666667 298.666667 0 1 1 138.965333-34.218667l-142.165333-165.845333a8.533333 8.533333 0 0 1 6.4 0l84.394667 34.304a8.533333 8.533333 0 0 0 11.733333-8.533333l-6.570667-90.88a8.789333 8.789333 0 0 1 2.005334-6.101334l58.709333-69.632a8.533333 8.533333 0 0 0-4.48-13.781333l-88.448-21.845333a8.618667 8.618667 0 0 1-5.205333-3.797334l-48.085334-77.354666a8.533333 8.533333 0 0 0-14.506666 0l-48.085334 77.354666a8.618667 8.618667 0 0 1-5.205333 3.797334l-88.448 21.845333a8.533333 8.533333 0 0 0-4.48 13.781333l58.709333 69.632c1.450667 1.706667 2.133333 3.925333 2.005334 6.144l-6.570667 90.88a8.533333 8.533333 0 0 0 11.733333 8.490667l84.394667-34.304L512 896zM213.333333 170.666667l90.24 156.330666a339.754667 339.754667 0 0 1 158.208-67.328L410.453333 170.666667H213.333333z"  /><path d="M508.8 695.893333L512 896a297.386667 297.386667 0 0 0 138.965333-34.218667l-142.165333-165.845333z"  /></svg>